<svg width="24" height="24" viewBox="0 0 24 24" fill="none" xmlns="http://www.w3.org/2000/svg">
<path fill-rule="evenodd" clip-rule="evenodd" d="M2.40002 5.70005C2.40002 5.20299 2.80297 4.80005 3.30002 4.80005H20.7C21.1971 4.80005 21.6 5.20299 21.6 5.70005C21.6 6.19711 21.1971 6.60005 20.7 6.60005H3.30002C2.80297 6.60005 2.40002 6.19711 2.40002 5.70005ZM2.40002 18.3C2.40002 17.803 2.80297 17.4 3.30002 17.4H12.3C12.7971 17.4 13.2 17.803 13.2 18.3C13.2 18.7971 12.7971 19.2 12.3 19.2H3.30002C2.80297 19.2 2.40002 18.7971 2.40002 18.3Z" fill="#4C35DE"/>
<path fill-rule="evenodd" clip-rule="evenodd" d="M2.40002 12C2.40002 11.5029 2.80297 11.1 3.30002 11.1H20.7C21.1971 11.1 21.6 11.5029 21.6 12C21.6 12.497 21.1971 12.9 20.7 12.9H3.30002C2.80297 12.9 2.40002 12.497 2.40002 12Z" fill="#4C35DE"/>
</svg>
