<svg width="27" height="28" viewBox="0 0 27 28" fill="none" xmlns="http://www.w3.org/2000/svg">
<path fill-rule="evenodd" clip-rule="evenodd" d="M16.4421 2.29432C16.781 2.48326 16.9473 2.87896 16.8453 3.25328L14.6047 11.4688H22.7812C23.1172 11.4688 23.4212 11.6681 23.5551 11.9763C23.689 12.2844 23.6273 12.6426 23.3981 12.8882L11.5856 25.5445C11.3208 25.8281 10.8968 25.8947 10.5579 25.7057C10.219 25.5168 10.0526 25.1211 10.1547 24.7468L12.3953 16.5313H4.21874C3.88276 16.5313 3.5788 16.3319 3.44489 16.0238C3.31099 15.7157 3.37267 15.3574 3.60191 15.1118L15.4144 2.45557C15.6791 2.17192 16.1032 2.10539 16.4421 2.29432Z" fill="#4C35DE"/>
</svg>
