<svg width="676" height="344" viewBox="0 0 676 344" fill="none" xmlns="http://www.w3.org/2000/svg">
<path fill-rule="evenodd" clip-rule="evenodd" d="M-81.0203 -559.985C-80.3647 -560.635 -79.4789 -561 -78.5558 -561H1294.46C1295.38 -561 1296.27 -560.635 1296.92 -559.985L1920.31 58.2024C1921.72 59.5999 1921.82 61.6882 1920.46 63.0314C1868.43 114.334 1084.72 886.987 606.984 1351.96C605.628 1353.28 603.503 1353.23 602.138 1351.89L-704.406 63.1798C-705.793 61.8118 -705.796 59.5745 -704.413 58.2027L-81.0203 -559.985ZM-78.5558 -562C-79.7427 -562 -80.8816 -561.531 -81.7244 -560.695L-705.117 57.4927C-706.896 59.2563 -706.892 62.1329 -705.108 63.8918L601.436 1352.6C603.171 1354.31 605.918 1354.39 607.682 1352.67C1085.42 887.701 1869.13 115.045 1921.16 63.7435C1922.97 61.96 1922.77 59.2305 1921.02 57.4924L1297.63 -560.695C1296.78 -561.531 1295.64 -562 1294.46 -562H-78.5558ZM15.3205 -444.023C14.3978 -444.023 13.5125 -443.659 12.857 -443.01L-524.938 89.8606C-526.323 91.2326 -526.32 93.4714 -524.932 94.8397L602.6 1206.07C603.964 1207.42 606.087 1207.46 607.444 1206.14C1019.16 805.741 1693.57 141.405 1741.06 94.6115C1742.41 93.2816 1742.27 91.2731 1740.84 89.8604L1203.04 -443.01C1202.39 -443.659 1201.5 -444.023 1200.58 -444.023H15.3205ZM12.1531 -443.72C12.9959 -444.555 14.1342 -445.023 15.3205 -445.023H1200.58C1201.77 -445.023 1202.91 -444.555 1203.75 -443.72L1741.54 89.15C1743.28 90.8734 1743.59 93.5265 1741.77 95.3238C1694.27 142.116 1019.86 806.455 608.141 1206.85C606.378 1208.57 603.633 1208.49 601.898 1206.78L-525.634 95.5519C-527.419 93.7928 -527.423 90.9142 -525.642 89.1503L12.1531 -443.72ZM93.3233 -356.479C93.9787 -357.128 94.8638 -357.493 95.7864 -357.493H1120.12C1121.04 -357.493 1121.92 -357.128 1122.58 -356.479L1587.01 103.558C1588.44 104.981 1588.62 106.939 1587.28 108.26C1543.71 151.178 962.98 723.055 607.839 1068.33C606.482 1069.65 604.359 1069.61 602.994 1068.26L-371.098 108.539C-372.487 107.17 -372.49 104.931 -371.105 103.559L93.3233 -356.479ZM95.7864 -358.493C94.6003 -358.493 93.4622 -358.024 92.6196 -357.19L-371.809 102.848C-373.589 104.612 -373.586 107.492 -371.8 109.251L602.293 1068.98C604.028 1070.68 606.773 1070.76 608.536 1069.05C963.679 723.769 1544.41 151.89 1587.98 108.972C1589.82 107.166 1589.44 104.562 1587.71 102.848L1123.28 -357.19C1122.44 -358.024 1121.3 -358.493 1120.12 -358.493H95.7864ZM166.195 -283.781C165.272 -283.781 164.387 -283.417 163.731 -282.767L-236.503 113.802C-237.887 115.174 -237.884 117.413 -236.496 118.781L603.339 946.478C604.704 947.823 606.828 947.863 608.185 946.544C913.822 649.302 1412.6 157.99 1452.7 118.48C1453.39 117.802 1453.66 116.991 1453.59 116.182C1453.53 115.364 1453.12 114.515 1452.4 113.802L1052.17 -282.767C1051.51 -283.417 1050.63 -283.781 1049.71 -283.781H166.195ZM163.027 -283.478C163.87 -284.313 165.008 -284.781 166.195 -284.781H1049.71C1050.89 -284.781 1052.03 -284.313 1052.87 -283.478L1453.11 113.092C1453.97 113.947 1454.51 115.011 1454.59 116.104C1454.68 117.207 1454.3 118.307 1453.4 119.192C1413.3 158.702 914.522 650.017 608.882 947.261C607.119 948.976 604.372 948.9 602.637 947.19L-237.198 119.494C-238.983 117.734 -238.987 114.856 -237.206 113.092L163.027 -283.478ZM230.786 -213.862C231.442 -214.512 232.327 -214.877 233.251 -214.877H982.651C983.574 -214.877 984.46 -214.512 985.115 -213.862L1324.21 122.36C1324.93 123.073 1325.34 123.922 1325.4 124.742C1325.46 125.552 1325.19 126.364 1324.51 127.042C1287.75 163.275 867.009 577.994 608.515 829.564C607.158 830.884 605.032 830.844 603.667 829.499L-108.305 127.338C-109.692 125.97 -109.695 123.732 -108.312 122.361L230.786 -213.862ZM233.251 -215.877C232.064 -215.877 230.925 -215.408 230.082 -214.573L-109.016 121.65C-110.795 123.414 -110.791 126.291 -109.007 128.05L602.965 830.211C604.701 831.922 607.449 831.996 609.213 830.28C867.709 578.708 1288.46 163.987 1325.21 127.755C1326.11 126.869 1326.48 125.769 1326.4 124.665C1326.31 123.571 1325.78 122.506 1324.92 121.65L985.819 -214.573C984.976 -215.408 983.838 -215.877 982.651 -215.877H233.251ZM291.087 -163.6C290.163 -163.6 289.277 -163.235 288.621 -162.584L2.25146 121.616C0.869507 122.988 0.872498 125.223 2.25818 126.591L603.949 720.53C605.314 721.877 607.444 721.917 608.801 720.594C826.634 508.398 1180.09 159.696 1213.9 126.336C1215.24 125.011 1215.08 123.033 1213.65 121.616L927.28 -162.584C926.625 -163.235 925.738 -163.6 924.815 -163.6H291.087ZM287.917 -163.294C288.76 -164.13 289.899 -164.6 291.087 -164.6H924.815C926.002 -164.6 927.142 -164.13 927.985 -163.294L1214.35 120.906C1216.08 122.624 1216.43 125.246 1214.6 127.047C1180.79 160.408 827.334 509.111 609.499 721.311C607.735 723.029 604.983 722.956 603.247 721.242L1.55566 127.303C-0.225891 125.544 -0.229797 122.67 1.54706 120.906L287.917 -163.294ZM346.456 -98.4855C347.112 -99.1371 347.999 -99.5028 348.923 -99.5028H866.978C867.903 -99.5028 868.789 -99.1371 869.445 -98.4854L1103.09 133.691C1104.5 135.091 1104.6 137.162 1103.24 138.502C1072.46 168.92 786.261 451.62 609.088 624.443C607.73 625.767 605.596 625.729 604.231 624.38L112.82 138.663C111.436 137.296 111.433 135.063 112.813 133.692L346.456 -98.4855ZM348.923 -100.503C347.735 -100.503 346.594 -100.033 345.751 -99.1948L112.108 132.982C110.334 134.745 110.338 137.616 112.117 139.375L603.528 625.091C605.265 626.808 608.022 626.879 609.786 625.158C786.962 452.334 1073.16 169.631 1103.95 139.213C1105.75 137.429 1105.54 134.717 1103.79 132.982L870.15 -99.1948C869.307 -100.033 868.167 -100.503 866.978 -100.503H348.923ZM401.729 -41.8157C400.805 -41.8157 399.918 -41.45 399.262 -40.7985L213.766 143.517C212.386 144.889 212.389 147.122 213.773 148.49L604.49 534.645C605.855 535.993 607.991 536.03 609.349 534.705C749.412 398.086 974.263 176.016 1002.13 148.482C1003.52 147.116 1003.52 144.89 1002.14 143.517L816.639 -40.7985C815.984 -41.45 815.097 -41.8157 814.172 -41.8157H401.729ZM398.557 -41.5078C399.4 -42.3455 400.541 -42.8157 401.729 -42.8157H814.172C815.361 -42.8157 816.501 -42.3455 817.344 -41.5078L1002.84 142.808C1004.61 144.57 1004.62 147.435 1002.84 149.194C974.967 176.727 750.113 398.8 610.047 535.421C608.284 537.141 605.525 537.073 603.787 535.356L213.07 149.201C211.291 147.443 211.287 144.571 213.061 142.808L398.557 -41.5078ZM448.715 10.4796C449.371 9.8277 450.258 9.46179 451.183 9.46179H764.719C765.643 9.46179 766.53 9.8277 767.186 10.4796L907.594 150.055C908.99 151.443 909.052 153.578 907.685 154.929C884.104 178.234 715.45 344.864 609.595 448.169C608.236 449.495 606.096 449.461 604.732 448.112L308.314 155.027C306.931 153.659 306.928 151.427 308.307 150.056L448.715 10.4796ZM451.183 8.46179C449.994 8.46179 448.853 8.93225 448.01 9.77039L307.602 149.346C305.829 151.109 305.833 153.98 307.611 155.738L604.029 448.823C605.767 450.542 608.531 450.605 610.294 448.885C716.151 345.577 884.807 178.945 908.388 155.641C910.183 153.867 910.056 151.093 908.299 149.346L767.891 9.77039C767.048 8.93225 765.907 8.46179 764.719 8.46179H451.183ZM488.9 47.9199C487.976 47.9199 487.09 48.2852 486.434 48.936L380.422 154.177C379.04 155.548 379.043 157.783 380.428 159.151L604.919 380.816C606.281 382.161 608.424 382.193 609.783 380.868C689.528 303.141 815.33 179.029 835.562 159.063C836.933 157.71 836.876 155.563 835.48 154.177L729.468 48.936C728.812 48.2852 727.926 47.9199 727.002 47.9199H488.9ZM485.73 48.2263C486.572 47.3895 487.712 46.9199 488.9 46.9199H727.002C728.19 46.9199 729.329 47.3895 730.172 48.2263L836.184 153.467C837.945 155.215 838.06 158.002 836.264 159.774C816.033 179.74 690.229 303.854 610.481 381.584C608.72 383.301 605.954 383.244 604.216 381.528L379.726 159.863C377.945 158.104 377.941 155.23 379.717 153.467L485.73 48.2263ZM524.99 87.4034C525.647 86.7469 526.537 86.378 527.465 86.378H688.436C689.365 86.378 690.255 86.7469 690.911 87.4034L761.799 158.309C763.175 159.685 763.197 161.867 761.83 163.226C745.659 179.305 663.213 261.247 609.99 313.528C608.628 314.866 606.462 314.841 605.098 313.484L454.109 163.265C452.736 161.899 452.733 159.678 454.102 158.309L524.99 87.4034ZM527.465 85.378C526.272 85.378 525.127 85.8522 524.283 86.6964L453.395 157.602C451.635 159.363 451.639 162.218 453.403 163.974L604.393 314.193C606.136 315.927 608.928 315.973 610.691 314.241C663.916 261.958 746.365 180.013 762.535 163.935C764.307 162.174 764.26 159.356 762.506 157.602L691.619 86.6964C690.775 85.8522 689.63 85.378 688.436 85.378H527.465ZM560.194 129.062C560.85 128.408 561.739 128.041 562.665 128.041H653.236C654.163 128.041 655.051 128.408 655.707 129.062L694.483 167.713C695.862 169.088 695.877 171.289 694.503 172.651C683.057 183.989 639.431 227.185 610.179 255.834C608.814 257.17 606.634 257.158 605.275 255.811L521.425 172.678C520.046 171.311 520.043 169.084 521.418 167.713L560.194 129.062ZM562.665 127.041C561.474 127.041 560.332 127.513 559.488 128.354L520.712 167.005C518.944 168.767 518.948 171.631 520.721 173.388L604.571 256.521C606.316 258.251 609.121 258.269 610.879 256.548C640.133 227.898 683.761 184.7 695.206 173.361C696.984 171.6 696.952 168.762 695.189 167.005L656.413 128.354C655.57 127.513 654.427 127.041 653.236 127.041H562.665Z" fill="url(#paint0_linear_1_17630)"/>
<defs>
<linearGradient id="paint0_linear_1_17630" x1="607.858" y1="161.624" x2="-390.923" y2="200.112" gradientUnits="userSpaceOnUse">
<stop stop-color="#8673FC"/>
<stop offset="0.114867" stop-color="#7955E5"/>
<stop offset="0.335164" stop-color="#9F63EE" stop-opacity="0.08"/>
<stop offset="0.389349" stop-color="#CA82F6"/>
<stop offset="0.590435" stop-color="#9F63EE" stop-opacity="0.08"/>
<stop offset="1" stop-color="#A28ED9"/>
</linearGradient>
</defs>
</svg>
